<svg xmlns="http://www.w3.org/2000/svg" width="19" height="19"><path fill="none" stroke="#000" stroke-width="1.3" d="M17.924 7.377a1.531 1.531 0 00-1.228-1.08l-4.03-.61-1.801-3.803A1.508 1.508 0 009.5 1a1.51 1.51 0 00-1.365.884L6.333 5.688l-4.029.61c-.577.087-1.048.5-1.228 1.08a1.622 1.622 0 00.385 1.624l2.915 2.962-.688 4.18a1.61 1.61 0 00.606 1.552 1.466 1.466 0 001.602.12L9.5 15.842l3.604 1.974c.516.283 1.13.237 1.603-.12.472-.358.704-.952.605-1.551l-.688-4.182 2.915-2.96a1.622 1.622 0 00.385-1.626z"/></svg>